<?xml version="1.0" encoding="utf-8"?>
<!-- Generator: Adobe Illustrator 19.2.0, SVG Export Plug-In . SVG Version: 6.00 Build 0)  -->
<svg version="1.1" id="Layer_1" xmlns="http://www.w3.org/2000/svg" xmlns:xlink="http://www.w3.org/1999/xlink" x="0px" y="0px"
	 width="741" height="101" viewBox="0 0 370.5 50.5" style="enable-background:new 0 0 370.5 50.5;" xml:space="preserve">
	<g>
		<style type="text/css">
			.st3{fill:#60B6EA;}
			.st6{fill:#24273B;}
			.st11{fill-rule:evenodd;clip-rule:evenodd;fill:#C2E5FE;}
			.st14{fill-rule:evenodd;clip-rule:evenodd;fill:#FFFFFF;}
			.st53{fill-rule:evenodd;clip-rule:evenodd;fill:#EAEAEA;}
		</style>
		<path class="st6" d="M102.2,17.5c0,0.6-0.1,1.3-0.3,1.8c-0.2,0.6-0.5,1.1-0.8,1.5c-0.4,0.4-0.8,0.8-1.3,1
			c-0.5,0.2-1.2,0.4-1.9,0.4c-0.6,0-1.1-0.1-1.6-0.2c-0.5-0.1-1.1-0.3-1.7-0.5V36h-2.6V20.4c-0.4-0.2-0.9-0.3-1.4-0.4
			c-0.5-0.1-0.9-0.1-1.4-0.1c-0.5,0-1,0.1-1.4,0.3c-0.4,0.2-0.6,0.6-0.7,1.2h-2.5c0-0.6,0.1-1.2,0.4-1.7c0.2-0.5,0.6-0.9,1-1.2
			c0.4-0.3,0.9-0.6,1.5-0.7c0.6-0.2,1.2-0.3,1.8-0.3c1,0,1.9,0.1,2.6,0.3c0.8,0.2,1.5,0.5,2.2,0.8c0.7,0.3,1.3,0.5,1.9,0.8
			c0.6,0.2,1.3,0.3,1.9,0.3c0.4,0,0.7,0,0.9-0.1c0.2-0.1,0.4-0.2,0.5-0.4c0.1-0.2,0.2-0.4,0.3-0.7c0-0.3,0.1-0.6,0.1-1H102.2z"/>
		<path class="st6" d="M108.1,20.9c1.1,0,2.2,0.2,3.1,0.6c0.9,0.4,1.7,0.9,2.4,1.6c0.6,0.7,1.1,1.5,1.5,2.4c0.3,0.9,0.5,2,0.5,3.1
			c0,0.9-0.2,1.9-0.5,2.8c-0.3,0.9-0.8,1.7-1.4,2.5c-0.6,0.7-1.4,1.3-2.3,1.8c-0.9,0.5-2,0.7-3.2,0.7c-0.5,0-1,0-1.6-0.1
			c-0.6,0-1-0.1-1.3-0.2v5h-2.7V22.4c0.5-0.3,0.9-0.5,1.4-0.7c0.5-0.2,1-0.3,1.5-0.5c0.5-0.1,1-0.2,1.4-0.3
			C107.3,20.9,107.7,20.9,108.1,20.9z M113,28.1c0-0.8-0.2-1.5-0.5-2c-0.3-0.6-0.7-1.1-1.3-1.4c-0.5-0.4-1.1-0.6-1.8-0.8
			c-0.7-0.2-1.3-0.3-2-0.3c-0.7,0-1.5,0.1-2.3,0.4v9.2c0.3,0.1,0.7,0.1,1.1,0.2c0.4,0,0.8,0,1.1,0c0.8,0,1.6-0.1,2.3-0.3
			c0.7-0.2,1.3-0.5,1.7-1c0.5-0.4,0.8-1,1.1-1.6C112.9,29.9,113,29.1,113,28.1z"/>
		<path class="st6" d="M131.1,29.9c0,0.7,0,1.5,0,2.2c0,0.7,0,1.4,0,1.9c0,0.6,0,1,0,1.4c0,0.3,0,0.5,0,0.5h-2.7v-1.5
			c-0.6,0.7-1.3,1.2-2.1,1.5c-0.8,0.3-1.6,0.4-2.5,0.4c-0.7,0-1.4-0.1-2.1-0.3c-0.7-0.2-1.3-0.5-1.9-0.9c-0.5-0.4-1-0.9-1.3-1.5
			c-0.3-0.6-0.5-1.3-0.5-2.2c0-0.8,0.1-1.6,0.4-2.2c0.3-0.6,0.7-1.1,1.2-1.5c0.5-0.4,1.1-0.7,1.8-0.8c0.7-0.2,1.4-0.3,2.2-0.3
			c0.7,0,1.5,0.1,2.3,0.2c0.8,0.1,1.6,0.3,2.4,0.6v-0.1c0-0.2,0.1-0.3,0.1-0.4s0-0.2,0-0.4c0-0.5-0.1-1-0.3-1.4
			c-0.2-0.4-0.5-0.7-0.8-1c-0.3-0.3-0.7-0.4-1.1-0.6c-0.4-0.1-0.9-0.2-1.3-0.2c-0.4,0-0.9,0-1.3,0.1c-0.4,0.1-0.8,0.3-1.1,0.5
			c-0.3,0.2-0.6,0.5-0.8,0.8c-0.2,0.3-0.3,0.7-0.4,1.2h-2.7c0.1-0.9,0.3-1.6,0.6-2.3c0.4-0.6,0.8-1.2,1.4-1.6c0.6-0.4,1.2-0.7,1.9-1
			c0.7-0.2,1.4-0.3,2.2-0.3c0.9,0,1.7,0.1,2.4,0.4c0.8,0.2,1.4,0.6,2,1.1c0.6,0.5,1,1.2,1.4,2c0.3,0.8,0.5,1.8,0.5,2.9v0.1
			c0.3,0,0.6-0.1,0.9-0.1c0.3-0.1,0.6-0.1,1-0.2v2.8L131.1,29.9z M128.4,30c-0.1,0-0.3,0-0.6-0.1c-0.3-0.1-0.7-0.2-1.1-0.3
			c-0.4-0.1-0.8-0.2-1.3-0.3c-0.5-0.1-0.9-0.1-1.3-0.1c-0.3,0-0.7,0-1.1,0.1c-0.4,0.1-0.7,0.2-1.1,0.4c-0.3,0.2-0.6,0.4-0.8,0.7
			c-0.2,0.3-0.3,0.6-0.3,1c0,0.3,0.1,0.6,0.3,0.9c0.2,0.3,0.4,0.5,0.8,0.7c0.3,0.2,0.7,0.4,1.1,0.5c0.4,0.1,0.9,0.2,1.3,0.2
			c0.5,0,1.1-0.1,1.6-0.3c0.5-0.2,0.9-0.4,1.3-0.7c0.4-0.3,0.7-0.6,0.9-0.9c0.2-0.3,0.3-0.6,0.4-0.9V30z"/>
		<path class="st6" d="M147.6,21.2V36h-2.7v-6.3h-7.6V36h-2.7V21.2h2.7V27h7.6v-5.8H147.6z"/>
		<path class="st6" d="M165.3,31.1c-0.3,0.8-0.7,1.5-1.1,2.1c-0.5,0.6-1,1.2-1.7,1.6c-0.6,0.5-1.4,0.8-2.1,1.1
			c-0.8,0.3-1.6,0.4-2.4,0.4c-1,0-2-0.2-3-0.6c-0.9-0.4-1.8-0.9-2.5-1.6c-0.7-0.7-1.3-1.5-1.7-2.4c-0.4-0.9-0.6-1.9-0.6-3
			c0-1,0.2-2,0.6-3c0.4-0.9,1-1.8,1.7-2.5c0.7-0.7,1.5-1.3,2.5-1.7c0.9-0.4,2-0.6,3-0.6c0.8,0,1.7,0.1,2.4,0.4
			c0.8,0.3,1.5,0.6,2.1,1.1c0.6,0.5,1.2,1,1.7,1.7s0.9,1.4,1.2,2.2h-2.9c-0.4-0.8-1-1.5-1.8-1.9s-1.7-0.7-2.6-0.7
			c-0.7,0-1.3,0.1-1.9,0.4c-0.6,0.3-1.2,0.6-1.6,1.1c-0.5,0.5-0.8,1-1.1,1.6c-0.3,0.6-0.4,1.3-0.4,2c0,0.6,0.1,1.3,0.4,1.9
			c0.3,0.6,0.6,1.1,1.1,1.6c0.5,0.5,1,0.8,1.6,1.1c0.6,0.3,1.3,0.4,2,0.4c0.9,0,1.7-0.2,2.5-0.7c0.8-0.5,1.4-1.1,1.9-1.8H165.3z"/>
		<path class="st6" d="M182.4,22.1c0.7,0.2,1.4,0.6,2,1s1.1,1,1.5,1.6c0.4,0.6,0.8,1.3,1,2c0.2,0.7,0.4,1.5,0.4,2.3
			c0,1-0.2,1.9-0.5,2.8c-0.4,0.9-0.9,1.7-1.5,2.4c-0.6,0.7-1.4,1.3-2.3,1.7s-1.8,0.6-2.9,0.6c-0.4,0-0.7,0-1.1-0.1
			c-0.3-0.1-0.7-0.1-1-0.2v4.9h-2.6v-4.9c-0.3,0.1-0.6,0.2-1,0.2c-0.3,0-0.7,0.1-1,0.1c-1,0-1.9-0.2-2.8-0.6
			c-0.9-0.4-1.6-0.9-2.3-1.6c-0.7-0.7-1.2-1.5-1.6-2.4c-0.4-0.9-0.6-1.9-0.6-2.9c0-0.7,0.1-1.5,0.3-2.2c0.2-0.7,0.6-1.4,1-2
			c0.4-0.6,0.9-1.2,1.5-1.6c0.6-0.5,1.3-0.8,2-1.1c0.6-0.2,1.3-0.3,2-0.3c0.4,0,0.7,0,1.1,0.1c0.4,0.1,0.8,0.1,1.2,0.2v-3.8h2.6
			l0,3.8c0.7-0.2,1.4-0.3,2.2-0.3C180.8,21.8,181.6,21.9,182.4,22.1z M168.8,29.1c0,0.6,0.1,1.2,0.4,1.8c0.2,0.6,0.6,1.1,1,1.5
			c0.4,0.4,0.9,0.8,1.5,1c0.6,0.3,1.2,0.4,1.8,0.4c0.7,0,1.4-0.1,2-0.4v-8.5c-0.7-0.4-1.4-0.5-2.1-0.5c-0.6,0-1.2,0.1-1.7,0.4
			c-0.5,0.3-1,0.6-1.4,1c-0.4,0.4-0.7,0.9-1,1.5C168.9,27.9,168.8,28.5,168.8,29.1z M180.1,33.9c0.6,0,1.2-0.1,1.8-0.4
			c0.6-0.3,1.1-0.6,1.5-1c0.4-0.4,0.8-0.9,1-1.5c0.3-0.6,0.4-1.2,0.4-1.8c0-0.6-0.1-1.1-0.3-1.7c-0.2-0.6-0.5-1.1-0.9-1.5
			c-0.4-0.5-0.9-0.8-1.4-1.1c-0.6-0.3-1.2-0.4-1.9-0.4c-0.4,0-0.8,0.1-1.2,0.2c-0.3,0.1-0.7,0.2-1,0.4v8.5
			C178.6,33.7,179.3,33.9,180.1,33.9z"/>
		<path class="st6" d="M195.9,36.3c-1.1,0-2.1-0.2-3-0.6c-1-0.4-1.8-1-2.5-1.7c-0.7-0.7-1.3-1.5-1.7-2.5c-0.4-0.9-0.6-1.9-0.6-3
			c0-1.1,0.2-2.1,0.6-3c0.4-0.9,1-1.8,1.7-2.5c0.7-0.7,1.6-1.3,2.5-1.7c1-0.4,2-0.6,3-0.6c1.1,0,2.1,0.2,3,0.6c1,0.4,1.8,1,2.5,1.7
			c0.7,0.7,1.3,1.5,1.7,2.5c0.4,0.9,0.6,2,0.6,3c0,1.1-0.2,2.1-0.6,3c-0.4,0.9-1,1.8-1.7,2.5c-0.7,0.7-1.5,1.3-2.5,1.7
			C198,36.1,197,36.3,195.9,36.3z M195.9,36.3c-1.1,0-2.1-0.2-3-0.6c-1-0.4-1.8-1-2.5-1.7c-0.7-0.7-1.3-1.5-1.7-2.5
			c-0.4-0.9-0.6-1.9-0.6-3c0-1.1,0.2-2.1,0.6-3c0.4-0.9,1-1.8,1.7-2.5c0.7-0.7,1.6-1.3,2.5-1.7c1-0.4,2-0.6,3-0.6
			c1.1,0,2.1,0.2,3,0.6c1,0.4,1.8,1,2.5,1.7c0.7,0.7,1.3,1.5,1.7,2.5c0.4,0.9,0.6,2,0.6,3c0,1.1-0.2,2.1-0.6,3
			c-0.4,0.9-1,1.8-1.7,2.5c-0.7,0.7-1.5,1.3-2.5,1.7C198,36.1,197,36.3,195.9,36.3z M195.9,23.5c-0.7,0-1.4,0.1-2,0.4
			c-0.6,0.3-1.2,0.6-1.6,1.1c-0.5,0.5-0.8,1-1.1,1.6c-0.3,0.6-0.4,1.3-0.4,2c0,0.7,0.1,1.4,0.4,2c0.3,0.6,0.6,1.1,1.1,1.6
			c0.5,0.5,1,0.8,1.6,1.1c0.6,0.3,1.3,0.4,2,0.4c0.7,0,1.4-0.1,2-0.4c0.6-0.3,1.2-0.6,1.6-1.1c0.5-0.5,0.8-1,1.1-1.6
			c0.3-0.6,0.4-1.3,0.4-2c0-0.7-0.1-1.4-0.4-2c-0.3-0.6-0.6-1.1-1.1-1.6c-0.5-0.5-1-0.8-1.6-1.1C197.3,23.6,196.6,23.5,195.9,23.5z
			 M195.9,23.5c-0.7,0-1.4,0.1-2,0.4c-0.6,0.3-1.2,0.6-1.6,1.1c-0.5,0.5-0.8,1-1.1,1.6c-0.3,0.6-0.4,1.3-0.4,2c0,0.7,0.1,1.4,0.4,2
			c0.3,0.6,0.6,1.1,1.1,1.6c0.5,0.5,1,0.8,1.6,1.1c0.6,0.3,1.3,0.4,2,0.4c0.7,0,1.4-0.1,2-0.4c0.6-0.3,1.2-0.6,1.6-1.1
			c0.5-0.5,0.8-1,1.1-1.6c0.3-0.6,0.4-1.3,0.4-2c0-0.7-0.1-1.4-0.4-2c-0.3-0.6-0.6-1.1-1.1-1.6c-0.5-0.5-1-0.8-1.6-1.1
			C197.3,23.6,196.6,23.5,195.9,23.5z"/>
		<path class="st6" d="M211.7,20.9c1.1,0,2.2,0.2,3.1,0.6c0.9,0.4,1.7,0.9,2.4,1.6c0.6,0.7,1.1,1.5,1.5,2.4c0.3,0.9,0.5,2,0.5,3.1
			c0,0.9-0.2,1.9-0.5,2.8c-0.3,0.9-0.8,1.7-1.4,2.5c-0.6,0.7-1.4,1.3-2.3,1.8c-0.9,0.5-2,0.7-3.2,0.7c-0.5,0-1,0-1.6-0.1
			c-0.6,0-1-0.1-1.3-0.2v5h-2.7V22.4c0.5-0.3,0.9-0.5,1.4-0.7c0.5-0.2,1-0.3,1.5-0.5c0.5-0.1,1-0.2,1.4-0.3
			C210.9,20.9,211.3,20.9,211.7,20.9z M216.6,28.1c0-0.8-0.2-1.5-0.5-2c-0.3-0.6-0.7-1.1-1.3-1.4c-0.5-0.4-1.1-0.6-1.8-0.8
			c-0.7-0.2-1.3-0.3-2-0.3c-0.7,0-1.5,0.1-2.3,0.4v9.2c0.3,0.1,0.7,0.1,1.1,0.2c0.4,0,0.8,0,1.1,0c0.8,0,1.6-0.1,2.3-0.3
			c0.7-0.2,1.3-0.5,1.7-1c0.5-0.4,0.8-1,1.1-1.6C216.5,29.9,216.6,29.1,216.6,28.1z"/>
		<path class="st6" d="M239.5,21.1V36h-2.6V24.3c-0.2,0.3-0.4,0.7-0.6,1.2c-0.2,0.5-0.4,0.9-0.5,1.3c-0.3,0.6-0.6,1.3-0.9,1.9
			c-0.3,0.6-0.6,1.1-1,1.6c-0.4,0.5-0.8,0.8-1.3,1.1c-0.5,0.3-1.1,0.4-1.7,0.4c-0.7,0-1.2-0.2-1.7-0.5c-0.5-0.3-0.9-0.7-1.3-1.2
			c-0.4-0.5-0.7-1-1-1.6c-0.3-0.6-0.6-1.2-0.8-1.8c-0.2-0.4-0.4-0.8-0.5-1.3s-0.4-0.9-0.6-1.2V36h-2.6V21.1h2.9
			c0.4,0.2,0.7,0.5,1,0.8c0.3,0.3,0.5,0.7,0.7,1.1c0.2,0.4,0.4,0.8,0.6,1.3s0.4,0.9,0.5,1.3c0.5,1.1,1,2,1.4,2.7
			c0.4,0.6,0.9,1,1.3,1c0.5,0,0.9-0.4,1.4-1c0.4-0.6,0.9-1.5,1.4-2.7c0.2-0.4,0.4-0.9,0.5-1.3c0.2-0.4,0.4-0.9,0.6-1.3
			c0.2-0.4,0.5-0.8,0.8-1.1c0.3-0.3,0.6-0.6,1-0.8L239.5,21.1z"/>
		<path class="st6" d="M255.3,29.9c0,0.7,0,1.5,0,2.2c0,0.7,0,1.4,0,1.9c0,0.6,0,1,0,1.4c0,0.3,0,0.5,0,0.5h-2.7v-1.5
			c-0.6,0.7-1.3,1.2-2.1,1.5c-0.8,0.3-1.6,0.4-2.5,0.4c-0.7,0-1.4-0.1-2.1-0.3c-0.7-0.2-1.3-0.5-1.9-0.9c-0.6-0.4-1-0.9-1.3-1.5
			c-0.3-0.6-0.5-1.3-0.5-2.2c0-0.8,0.1-1.6,0.4-2.2c0.3-0.6,0.7-1.1,1.2-1.5c0.5-0.4,1.1-0.7,1.8-0.8c0.7-0.2,1.4-0.3,2.2-0.3
			c0.7,0,1.5,0.1,2.3,0.2c0.8,0.1,1.6,0.3,2.4,0.6v-0.1c0-0.2,0.1-0.3,0.1-0.4s0-0.2,0-0.4c0-0.5-0.1-1-0.3-1.4
			c-0.2-0.4-0.5-0.7-0.8-1c-0.3-0.3-0.7-0.4-1.1-0.6c-0.4-0.1-0.9-0.2-1.3-0.2c-0.4,0-0.9,0-1.3,0.1c-0.4,0.1-0.8,0.3-1.1,0.5
			c-0.3,0.2-0.6,0.5-0.8,0.8c-0.2,0.3-0.3,0.7-0.4,1.2h-2.7c0.1-0.9,0.3-1.6,0.6-2.3c0.4-0.6,0.8-1.2,1.4-1.6c0.6-0.4,1.2-0.7,1.9-1
			c0.7-0.2,1.4-0.3,2.2-0.3c0.9,0,1.7,0.1,2.4,0.4c0.8,0.2,1.4,0.6,2,1.1c0.6,0.5,1,1.2,1.4,2c0.3,0.8,0.5,1.8,0.5,2.9v0.1
			c0.3,0,0.6-0.1,0.9-0.1c0.3-0.1,0.6-0.1,1-0.2v2.8L255.3,29.9z M252.6,30c-0.1,0-0.3,0-0.6-0.1c-0.3-0.1-0.7-0.2-1.1-0.3
			c-0.4-0.1-0.8-0.2-1.3-0.3c-0.5-0.1-0.9-0.1-1.3-0.1c-0.3,0-0.7,0-1.1,0.1c-0.4,0.1-0.7,0.2-1.1,0.4c-0.3,0.2-0.6,0.4-0.8,0.7
			c-0.2,0.3-0.3,0.6-0.3,1c0,0.3,0.1,0.6,0.3,0.9c0.2,0.3,0.4,0.5,0.8,0.7c0.3,0.2,0.7,0.4,1.1,0.5c0.4,0.1,0.9,0.2,1.3,0.2
			c0.5,0,1.1-0.1,1.6-0.3c0.5-0.2,0.9-0.4,1.3-0.7c0.4-0.3,0.7-0.6,0.9-0.9c0.2-0.3,0.3-0.6,0.4-0.9V30z"/>
		<path class="st6" d="M272.8,35c0.5,0.5,0.8,1.1,1,1.8c0.2,0.8,0.3,1.6,0.3,2.6h-2.6c0-0.4,0-0.8-0.1-1.2c-0.1-0.4-0.2-0.7-0.3-0.9
			c-0.2-0.2-0.4-0.4-0.7-0.6c-0.3-0.1-0.7-0.2-1.2-0.2c-0.7,0-1.4,0.1-2.3,0.2c-0.8,0.1-1.7,0.2-2.5,0.2c-0.8,0-1.5-0.1-2.3-0.2
			c-0.8-0.2-1.6-0.4-2.4-0.8V21.2h2.6v12.7c0.4,0.1,0.7,0.1,1.1,0.2c0.4,0.1,0.7,0.1,1.1,0.1c0.6,0,1.3,0,2-0.1
			c0.7-0.1,1.5-0.2,2.1-0.2V21.2h2.7v12.9C271.9,34.3,272.4,34.6,272.8,35z"/>
		<path class="st6" d="M290.1,21.2V36h-2.7V25.6L279.6,36h-2.5V21.2h2.7v10.3l7.9-10.3H290.1z"/>
		<path class="st6" d="M306.2,23.6c-0.3,0.1-0.5,0.2-0.7,0.2c-0.2,0-0.4,0-0.6,0v12h-2.7v-4.8c-0.7,0.7-1.4,1.4-2,2
			c-0.6,0.6-1.2,1.2-1.8,1.6c-0.6,0.5-1.3,0.8-2.1,1.1c-0.8,0.3-1.7,0.4-2.7,0.5v-2.7c0.6,0,1.2-0.1,1.6-0.3
			c0.5-0.2,0.9-0.4,1.4-0.7c0.4-0.3,0.8-0.6,1.1-1c0.4-0.4,0.7-0.7,1.1-1.1c0.1-0.1,0.1-0.2,0.2-0.2c0-0.1,0.1-0.1,0.2-0.2
			c-0.6-0.1-1.2-0.2-1.8-0.5c-0.6-0.2-1.1-0.5-1.6-0.9c-0.5-0.4-0.8-0.8-1.1-1.3c-0.3-0.5-0.4-1.1-0.4-1.8c0-1.1,0.3-2,1-2.8
			c0.7-0.8,1.6-1.4,2.7-1.6c0.7-0.2,1.5-0.3,2.3-0.3c0.6,0,1.2,0,1.8,0.1c0.6,0,1.2,0.1,1.8,0.1c0.4,0,0.8,0,1.2,0
			c0.4,0,0.7-0.1,1-0.2V23.6z M302.3,23.8c-0.5,0-0.9-0.1-1.2-0.1c-0.4,0-0.6,0-0.9,0c-0.3,0-0.7,0-1,0.1c-0.4,0-0.7,0.2-1.1,0.3
			c-0.3,0.2-0.6,0.4-0.8,0.6c-0.2,0.3-0.3,0.6-0.3,1.1c0,0.5,0.2,0.9,0.5,1.2c0.3,0.3,0.7,0.5,1.2,0.7c0.5,0.2,1,0.3,1.5,0.3
			c0.5,0,1,0.1,1.4,0.1c0.2,0,0.3,0,0.4,0c0.1,0,0.3,0,0.4,0V23.8z"/>
		<path class="st6" d="M338.1,31.1c-0.3,0.8-0.7,1.5-1.1,2.1c-0.5,0.6-1,1.2-1.7,1.6c-0.6,0.5-1.4,0.8-2.1,1.1
			c-0.8,0.3-1.6,0.4-2.4,0.4c-1,0-2-0.2-3-0.6c-0.9-0.4-1.8-0.9-2.5-1.6c-0.7-0.7-1.3-1.5-1.7-2.4c-0.4-0.9-0.6-1.9-0.6-3
			c0-1,0.2-2,0.6-3c0.4-0.9,1-1.8,1.7-2.5c0.7-0.7,1.5-1.3,2.5-1.7c0.9-0.4,2-0.6,3-0.6c0.8,0,1.7,0.1,2.4,0.4
			c0.8,0.3,1.5,0.6,2.1,1.1c0.6,0.5,1.2,1,1.7,1.7c0.5,0.7,0.9,1.4,1.2,2.2h-2.9c-0.4-0.8-1-1.5-1.8-1.9c-0.8-0.5-1.7-0.7-2.6-0.7
			c-0.7,0-1.3,0.1-1.9,0.4c-0.6,0.3-1.2,0.6-1.6,1.1c-0.5,0.5-0.8,1-1.1,1.6c-0.3,0.6-0.4,1.3-0.4,2c0,0.6,0.1,1.3,0.4,1.9
			c0.3,0.6,0.6,1.1,1.1,1.6c0.5,0.5,1,0.8,1.6,1.1c0.6,0.3,1.3,0.4,2,0.4c0.9,0,1.7-0.2,2.5-0.7c0.8-0.5,1.4-1.1,1.9-1.8H338.1z"/>
		<path class="st6" d="M352.6,21.2V36h-2.7v-6.3h-7.6V36h-2.7V21.2h2.7V27h7.6v-5.8H352.6z"/>
		<path class="st6" d="M368.7,29.9c0,0.7,0,1.5,0,2.2c0,0.7,0,1.4,0,1.9c0,0.6,0,1,0,1.4c0,0.3,0,0.5,0,0.5H366v-1.5
			c-0.6,0.7-1.3,1.2-2.1,1.5c-0.8,0.3-1.6,0.4-2.5,0.4c-0.7,0-1.4-0.1-2.1-0.3c-0.7-0.2-1.3-0.5-1.9-0.9c-0.6-0.4-1-0.9-1.3-1.5
			c-0.3-0.6-0.5-1.3-0.5-2.2c0-0.8,0.1-1.6,0.4-2.2c0.3-0.6,0.7-1.1,1.2-1.5c0.5-0.4,1.1-0.7,1.8-0.8c0.7-0.2,1.4-0.3,2.2-0.3
			c0.7,0,1.5,0.1,2.3,0.2c0.8,0.1,1.6,0.3,2.4,0.6v-0.1c0-0.2,0.1-0.3,0.1-0.4s0-0.2,0-0.4c0-0.5-0.1-1-0.3-1.4
			c-0.2-0.4-0.5-0.7-0.8-1c-0.3-0.3-0.7-0.4-1.1-0.6c-0.4-0.1-0.9-0.2-1.3-0.2c-0.4,0-0.9,0-1.3,0.1c-0.4,0.1-0.8,0.3-1.1,0.5
			c-0.3,0.2-0.6,0.5-0.8,0.8c-0.2,0.3-0.3,0.7-0.4,1.2h-2.7c0.1-0.9,0.3-1.6,0.6-2.3c0.4-0.6,0.8-1.2,1.4-1.6c0.6-0.4,1.2-0.7,1.9-1
			c0.7-0.2,1.4-0.3,2.2-0.3c0.9,0,1.7,0.1,2.4,0.4c0.8,0.2,1.4,0.6,2,1.1c0.6,0.5,1,1.2,1.4,2c0.3,0.8,0.5,1.8,0.5,2.9v0.1
			c0.3,0,0.6-0.1,0.9-0.1c0.3-0.1,0.6-0.1,1-0.2v2.8L368.7,29.9z M366,30c-0.1,0-0.3,0-0.6-0.1c-0.3-0.1-0.7-0.2-1.1-0.3
			c-0.4-0.1-0.8-0.2-1.3-0.3c-0.5-0.1-0.9-0.1-1.3-0.1c-0.3,0-0.7,0-1.1,0.1c-0.4,0.1-0.7,0.2-1.1,0.4c-0.3,0.2-0.6,0.4-0.8,0.7
			c-0.2,0.3-0.3,0.6-0.3,1c0,0.3,0.1,0.6,0.3,0.9c0.2,0.3,0.4,0.5,0.8,0.7c0.3,0.2,0.7,0.4,1.1,0.5c0.4,0.1,0.9,0.2,1.3,0.2
			c0.5,0,1.1-0.1,1.6-0.3c0.5-0.2,0.9-0.4,1.3-0.7c0.4-0.3,0.7-0.6,0.9-0.9c0.2-0.3,0.3-0.6,0.4-0.9V30z"/>
			<path class="st14" d="M6.1,41.1c0,0,9.9-12.7,15.6-28.9C27.4-4,60.3-2.9,63.9,22c3.6,24.8-25.7,28.4-33,25.4
		C23.6,44.5,8.2,41.9,6.1,41.1z"/>
	<path class="st11" d="M2.6,22.4c0,0,12.9-10.9,28.9-4c0,0,9.4,5.5,12.7,15c0,0-12.9,5.3-24.3,3.5C19.9,36.8,7.6,28.8,2.6,22.4z"/>
	<path class="st53" d="M46.2,34.9c-2.6,5.4-7.5,10.6-23.1,11c-15.2,0.3-16-5-16-5l5.6-7.2l4.6,2.9l5.8,1.2h8.7l7.5-1.2
		C39.3,36.6,47.1,33.1,46.2,34.9z"/>
		<path class="st3" d="M50.7,13.9c0.5,0,1,0.3,1.3,0.7c0.7,0.9,1.6,1.4,2.7,1.4c0.7,0,1.4-0.2,2-0.6c0.3-0.2,0.6-0.3,1-0.3
			c0.7,0,1.4,0.5,1.7,1.2c0.2,0.7,0,1.4-0.6,1.9c-1.2,0.8-2.6,1.3-4,1.3c-2.2,0-4.1-1-5.4-2.8c-0.4-0.5-0.4-1.2-0.1-1.8
			C49.4,14.2,50,13.9,50.7,13.9z"/>
			<path class="st3" d="M0,22.1c0,0.3,0.1,0.7,0.3,0.9l0.4,0.4c0,0,0,0,0,0l0.2,0.2c3.1,2.9,6.2,6,9.3,8.8L4,41.5
			c-0.2,0.3-0.3,0.7-0.1,1.1c0.1,0.3,0.4,0.6,0.8,0.7l0.6,0.2c0.2,0.1,23.8,7,33.2,7h0c0.8,0,1.7,0,2.5,0c3,0,5.8-0.6,8.6-1.6
			c0,0,0,0,0.1,0c7.5-2.7,13.1-8.6,15.5-16.1c0.7-2.4,1.1-4.8,1.1-7.3l3.4-3.3c0.3-0.3,0.4-0.7,0.3-1.1c-0.1-0.4-0.4-0.7-0.7-0.9
			l-3.9-1.5c-1.1-3.9-3.1-7.6-5.9-10.6c-3-3.3-6.8-5.7-11.1-7C45.9,0.4,43.3,0,40.7,0c-2.9,0-5.8,0.5-8.6,1.5
			c-6.3,2.3-11.4,6.8-14.2,12.8c-2.5,0.3-5,0.9-7.6,1.8c-5.2,1.9-9,4.5-9.4,4.7l0,0l-0.4,0.3C0.2,21.4,0,21.7,0,22.1z M16.6,33.9
			c-5-4.6-9.8-9.2-12.2-11.4c1.5-0.9,4-2.2,7-3.3c3.4-1.2,6.6-1.8,9.5-1.8c1.9,0,3.8,0.3,5.5,0.8c8.7,2.7,14.1,11.2,16,14.7
			c-3.3,1-11.2,3.2-17.7,3.2C20.9,36.1,18.2,35.3,16.6,33.9z M38.4,47.5c-7.2,0-24.1-4.7-30.2-6.4l4.3-6.4c0.6,0.6,1.2,1.1,1.9,1.7
			c2.2,2,5.7,3,10.4,3c9.1,0,20-3.8,20.4-4l0.5-0.2c0.3-0.1,0.6-0.3,0.7-0.6c0.1-0.3,0.1-0.6,0-0.9l-0.2-0.4
			c-0.1-0.1-6.3-14.2-18.8-18.1c-1.8-0.6-3.7-0.9-5.7-0.9c2.6-4.5,6.6-7.8,11.6-9.6c2.4-0.9,5-1.3,7.5-1.3c2.2,0,4.5,0.3,6.7,1
			c11.7,3.6,18.2,16,14.6,27.6c-2.1,6.6-6.9,11.7-13.4,14.1C48.6,45.9,44.5,47.5,38.4,47.5z"/>
	</g>
	</svg>
